<svg width="20" height="20" viewBox="0 0 20 20" fill="none" xmlns="http://www.w3.org/2000/svg">
<path d="M19.0001 2.41019L19.7101 1.71019C19.8984 1.52188 20.0042 1.26649 20.0042 1.00019C20.0042 0.733884 19.8984 0.478489 19.7101 0.290185C19.5218 0.101882 19.2664 -0.00390625 19.0001 -0.00390625C18.7338 -0.00390625 18.4784 0.101882 18.2901 0.290185L16.8901 1.70019L14.0601 4.53019L7.7501 10.8302C6.71614 10.148 5.46577 9.87395 4.24126 10.0611C3.01676 10.2482 1.90532 10.8832 1.12228 11.843C0.33925 12.8029 -0.0596152 14.0192 0.00297313 15.2563C0.0655615 16.4935 0.585148 17.6633 1.46105 18.5392C2.33696 19.4151 3.50682 19.9347 4.74395 19.9973C5.98109 20.0599 7.19741 19.661 8.15725 18.878C9.11708 18.095 9.75208 16.9835 9.93921 15.759C10.1263 14.5345 9.85226 13.2841 9.1701 12.2502L14.7601 6.65019L16.8801 8.78018C16.9733 8.87277 17.0839 8.94608 17.2055 8.99593C17.327 9.04578 17.4572 9.07121 17.5886 9.07074C17.72 9.07028 17.85 9.04394 17.9713 8.99323C18.0925 8.94251 18.2025 8.86842 18.2951 8.77518C18.3877 8.68195 18.461 8.57139 18.5108 8.44981C18.5607 8.32824 18.5861 8.19804 18.5857 8.06665C18.5852 7.93525 18.5588 7.80524 18.5081 7.68402C18.4574 7.56281 18.3833 7.45277 18.2901 7.36019L16.1701 5.24019L17.5901 3.83019L18.2901 4.53019C18.3827 4.62342 18.4927 4.69751 18.6139 4.74823C18.7352 4.79894 18.8652 4.82528 18.9966 4.82574C19.128 4.82621 19.2582 4.80079 19.3797 4.75093C19.5013 4.70108 19.6119 4.62777 19.7051 4.53519C19.7983 4.4426 19.8724 4.33256 19.9231 4.21135C19.9738 4.09013 20.0002 3.96012 20.0007 3.82872C20.0011 3.69733 19.9757 3.56713 19.9258 3.44556C19.876 3.32398 19.8027 3.21342 19.7101 3.12019L19.0001 2.41019ZM5.0001 18.0002C4.40675 18.0002 3.82673 17.8242 3.33339 17.4946C2.84004 17.1649 2.45552 16.6964 2.22846 16.1482C2.00139 15.6001 1.94199 14.9969 2.05774 14.4149C2.1735 13.833 2.45922 13.2984 2.87878 12.8789C3.29833 12.4593 3.83288 12.1736 4.41483 12.0578C4.99677 11.9421 5.59997 12.0015 6.14815 12.2285C6.69632 12.4556 7.16486 12.8401 7.4945 13.3335C7.82415 13.8268 8.0001 14.4068 8.0001 15.0002C8.0001 15.7958 7.68403 16.5589 7.12142 17.1215C6.55881 17.6841 5.79575 18.0002 5.0001 18.0002Z" fill="#C4C4C4"/>
</svg>
