<svg width="19" height="18" viewBox="0 0 19 18" fill="none" xmlns="http://www.w3.org/2000/svg">
<path d="M9.25014 1.5C8.26523 1.5 7.28996 1.69399 6.38002 2.0709C5.47008 2.44781 4.64328 3.00026 3.94684 3.6967C2.54032 5.10322 1.75014 7.01088 1.75014 9C1.74359 10.7319 2.34324 12.4114 3.44514 13.7475L1.94514 15.2475C1.84108 15.353 1.77058 15.4869 1.74255 15.6324C1.71452 15.7779 1.73021 15.9284 1.78764 16.065C1.84994 16.1999 1.95092 16.3133 2.07778 16.3908C2.20464 16.4682 2.35164 16.5063 2.50014 16.5H9.25014C11.2393 16.5 13.1469 15.7098 14.5534 14.3033C15.96 12.8968 16.7501 10.9891 16.7501 9C16.7501 7.01088 15.96 5.10322 14.5534 3.6967C13.1469 2.29018 11.2393 1.5 9.25014 1.5ZM9.25014 15H4.30764L5.00514 14.3025C5.14483 14.162 5.22324 13.9719 5.22324 13.7738C5.22324 13.5756 5.14483 13.3855 5.00514 13.245C4.02308 12.264 3.41152 10.9729 3.27466 9.59159C3.1378 8.21029 3.4841 6.82425 4.25456 5.66964C5.02503 4.51503 6.17199 3.66327 7.50003 3.25948C8.82807 2.85569 10.255 2.92485 11.5378 3.45519C12.8206 3.98552 13.8798 4.94421 14.535 6.16792C15.1902 7.39163 15.4008 8.80466 15.131 10.1663C14.8612 11.5279 14.1276 12.7538 13.0553 13.6352C11.983 14.5166 10.6382 14.9989 9.25014 15Z" fill="#7B7B7B"/>
</svg>
