<svg width="21" height="20" viewBox="0 0 21 20" fill="none" xmlns="http://www.w3.org/2000/svg">
<path d="M19.6401 11.0002C19.4958 10.8808 19.3208 10.8045 19.1352 10.7797C18.9496 10.755 18.7607 10.7828 18.5901 10.8602C17.5327 11.344 16.383 11.5931 15.2201 11.5902C13.069 11.5876 11.0061 10.7346 9.48127 9.21725C7.95644 7.69991 7.09333 5.64126 7.08014 3.49015C7.0847 2.81598 7.16861 2.1447 7.33014 1.49015C7.36441 1.31569 7.35156 1.13524 7.29289 0.967405C7.23423 0.799566 7.13187 0.650403 6.99638 0.535283C6.86088 0.420163 6.69714 0.343249 6.52203 0.312466C6.34692 0.281683 6.16677 0.298143 6.00014 0.360151C4.43246 1.06506 3.06971 2.15691 2.03989 3.53313C1.01008 4.90936 0.347015 6.52478 0.112984 8.22764C-0.121046 9.9305 0.081641 11.6649 0.702005 13.2679C1.32237 14.8709 2.34005 16.2899 3.65944 17.3916C4.97882 18.4933 6.55661 19.2415 8.24458 19.566C9.93255 19.8904 11.6753 19.7804 13.3091 19.2464C14.9429 18.7123 16.4141 17.7717 17.5845 16.5129C18.755 15.2541 19.5862 13.7184 20.0001 12.0502C20.0506 11.8591 20.0433 11.6575 19.9792 11.4706C19.9151 11.2837 19.7971 11.12 19.6401 11.0002ZM10.1401 17.6902C8.46189 17.6783 6.82834 17.148 5.46313 16.1719C4.09792 15.1957 3.0678 13.8215 2.51382 12.2373C1.95984 10.6531 1.90907 8.93634 2.36847 7.32216C2.82788 5.70797 3.77499 4.27525 5.08014 3.22015V3.49015C5.08278 6.17863 6.15195 8.75624 8.053 10.6573C9.95404 12.5583 12.5317 13.6275 15.2201 13.6302C15.926 13.6327 16.6301 13.559 17.3201 13.4102C16.63 14.7157 15.5966 15.808 14.3313 16.5693C13.066 17.3306 11.6168 17.732 10.1401 17.7302V17.6902Z" fill="#C4C4C4"/>
</svg>
