<svg width="19" height="18" viewBox="0 0 19 18" fill="none" xmlns="http://www.w3.org/2000/svg">
<path d="M16.6902 8.7C15.1752 5.1825 12.3252 3 9.25017 3C6.17517 3 3.32517 5.1825 1.81017 8.7C1.76887 8.79462 1.74756 8.89676 1.74756 9C1.74756 9.10324 1.76887 9.20538 1.81017 9.3C3.32517 12.8175 6.17517 15 9.25017 15C12.3252 15 15.1752 12.8175 16.6902 9.3C16.7315 9.20538 16.7528 9.10324 16.7528 9C16.7528 8.89676 16.7315 8.79462 16.6902 8.7ZM9.25017 13.5C6.87267 13.5 4.62267 11.7825 3.32517 9C4.62267 6.2175 6.87267 4.5 9.25017 4.5C11.6277 4.5 13.8777 6.2175 15.1752 9C13.8777 11.7825 11.6277 13.5 9.25017 13.5ZM9.25017 6C8.65683 6 8.07681 6.17595 7.58346 6.50559C7.09011 6.83524 6.7056 7.30377 6.47853 7.85195C6.25147 8.40013 6.19206 9.00333 6.30782 9.58527C6.42357 10.1672 6.70929 10.7018 7.12885 11.1213C7.54841 11.5409 8.08296 11.8266 8.6649 11.9424C9.24684 12.0581 9.85004 11.9987 10.3982 11.7716C10.9464 11.5446 11.4149 11.1601 11.7446 10.6667C12.0742 10.1734 12.2502 9.59334 12.2502 9C12.2502 8.20435 11.9341 7.44129 11.3715 6.87868C10.8089 6.31607 10.0458 6 9.25017 6ZM9.25017 10.5C8.9535 10.5 8.66349 10.412 8.41682 10.2472C8.17014 10.0824 7.97788 9.84811 7.86435 9.57403C7.75082 9.29994 7.72112 8.99834 7.77899 8.70736C7.83687 8.41639 7.97973 8.14912 8.18951 7.93934C8.39929 7.72956 8.66657 7.5867 8.95754 7.52882C9.24851 7.47094 9.55011 7.50065 9.8242 7.61418C10.0983 7.72771 10.3326 7.91997 10.4974 8.16665C10.6622 8.41332 10.7502 8.70333 10.7502 9C10.7502 9.39782 10.5921 9.77936 10.3108 10.0607C10.0295 10.342 9.648 10.5 9.25017 10.5Z" fill="#7B7B7B"/>
</svg>
