<svg width="24" height="24" viewBox="0 0 24 24" fill="none" xmlns="http://www.w3.org/2000/svg">
<path d="M21.0559 11.9999H19.0559C18.7907 11.9999 18.5364 12.1052 18.3488 12.2928C18.1613 12.4803 18.0559 12.7347 18.0559 12.9999C18.0559 13.2651 18.1613 13.5195 18.3488 13.707C18.5364 13.8945 18.7907 13.9999 19.0559 13.9999V15.9999H17.8699C17.9887 15.6797 18.0513 15.3414 18.0549 14.9999C18.0549 14.3395 17.837 13.6976 17.435 13.1737C17.0329 12.6498 16.4693 12.2732 15.8314 12.1022C15.1935 11.9313 14.5171 11.9756 13.907 12.2283C13.2968 12.481 12.7872 12.928 12.4569 13.4999C12.3902 13.6137 12.3467 13.7395 12.3288 13.8702C12.311 14.0008 12.3191 14.1337 12.3528 14.2612C12.3865 14.3887 12.4451 14.5083 12.5252 14.6131C12.6054 14.7178 12.7054 14.8057 12.8196 14.8716C12.9338 14.9376 13.0599 14.9803 13.1907 14.9973C13.3215 15.0143 13.4544 15.0052 13.5816 14.9707C13.7089 14.9361 13.8281 14.8768 13.9323 14.7959C14.0365 14.7151 14.1238 14.6145 14.1889 14.4999C14.2767 14.3479 14.4029 14.2216 14.5549 14.1339C14.707 14.0461 14.8794 13.9999 15.0549 13.9999C15.3202 13.9999 15.5745 14.1052 15.762 14.2928C15.9496 14.4803 16.0549 14.7347 16.0549 14.9999C16.0549 15.2651 15.9496 15.5195 15.762 15.707C15.5745 15.8945 15.3202 15.9999 15.0549 15.9999C14.7897 15.9999 14.5354 16.1052 14.3478 16.2928C14.1603 16.4803 14.0549 16.7347 14.0549 16.9999C14.0549 17.2651 14.1603 17.5195 14.3478 17.707C14.5354 17.8945 14.7897 17.9999 15.0549 17.9999C15.3202 17.9999 15.5745 18.1052 15.762 18.2928C15.9496 18.4803 16.0549 18.7347 16.0549 18.9999C16.0549 19.2651 15.9496 19.5195 15.762 19.707C15.5745 19.8945 15.3202 19.9999 15.0549 19.9999C14.8794 19.9999 14.707 19.9537 14.5549 19.8659C14.4029 19.7781 14.2767 19.6519 14.1889 19.4999C14.1238 19.3852 14.0365 19.2846 13.9323 19.2038C13.8281 19.123 13.7089 19.0636 13.5816 19.0291C13.4544 18.9945 13.3215 18.9855 13.1907 19.0025C13.0599 19.0195 12.9338 19.0622 12.8196 19.1281C12.7054 19.1941 12.6054 19.2819 12.5252 19.3867C12.4451 19.4915 12.3865 19.611 12.3528 19.7385C12.3191 19.866 12.311 19.9989 12.3288 20.1296C12.3467 20.2603 12.3902 20.3861 12.4569 20.4999C12.7872 21.0718 13.2968 21.5187 13.907 21.7714C14.5171 22.0241 15.1935 22.0684 15.8314 21.8975C16.4693 21.7266 17.0329 21.35 17.435 20.8261C17.837 20.3022 18.0549 19.6603 18.0549 18.9999C18.0513 18.6584 17.9887 18.3201 17.8699 17.9999H19.0549V20.9999C19.0549 21.2651 19.1603 21.5195 19.3478 21.707C19.5354 21.8945 19.7897 21.9999 20.0549 21.9999C20.3202 21.9999 20.5745 21.8945 20.762 21.707C20.9496 21.5195 21.0549 21.2651 21.0549 20.9999V13.9999C21.3202 13.9999 21.5745 13.8945 21.762 13.707C21.9496 13.5195 22.0549 13.2651 22.0549 12.9999C22.0549 12.7347 21.9496 12.4803 21.762 12.2928C21.5745 12.1052 21.3212 11.9999 21.0559 11.9999ZM9.08594 11.2429C9.11708 11.3711 9.17328 11.4918 9.2513 11.5982C9.32932 11.7046 9.42762 11.7945 9.54053 11.8627C9.65344 11.9309 9.77874 11.9761 9.9092 11.9957C10.0397 12.0153 10.1727 12.0089 10.3007 11.9768C10.4286 11.9448 10.549 11.8877 10.6548 11.8089C10.7606 11.7302 10.8498 11.6312 10.9172 11.5178C10.9847 11.4044 11.029 11.2788 11.0476 11.1482C11.0663 11.0176 11.0589 10.8846 11.0259 10.7569L9.26893 3.72688C9.14603 3.23307 8.86145 2.79456 8.46051 2.48118C8.05957 2.1678 7.56532 1.99756 7.05643 1.99756C6.54755 1.99756 6.0533 2.1678 5.65236 2.48118C5.25142 2.79456 4.96684 3.23307 4.84393 3.72688L3.08593 10.7569C3.05296 10.8846 3.04559 11.0176 3.06425 11.1482C3.0829 11.2788 3.12721 11.4044 3.19463 11.5178C3.26204 11.6312 3.35123 11.7302 3.45705 11.8089C3.56286 11.8877 3.68322 11.9448 3.81119 11.9768C3.93916 12.0089 4.07221 12.0153 4.20267 11.9957C4.33313 11.9761 4.45843 11.9309 4.57134 11.8627C4.68425 11.7945 4.78255 11.7046 4.86057 11.5982C4.93859 11.4918 4.99479 11.3711 5.02593 11.2429L5.58493 8.99988H8.52493L9.08594 11.2429ZM6.08593 6.99988L6.78293 4.21288C6.80396 4.15749 6.84133 4.10981 6.89009 4.07616C6.93885 4.04251 6.99669 4.02449 7.05593 4.02449C7.11518 4.02449 7.17302 4.04251 7.22178 4.07616C7.27054 4.10981 7.30791 4.15749 7.32893 4.21288L8.02593 6.99988H6.08593ZM14.0559 6.99988H15.0559C15.3211 7.00015 15.5753 7.10559 15.7627 7.29307C15.9502 7.48055 16.0557 7.73475 16.0559 7.99988V8.99988C16.0559 9.2651 16.1613 9.51945 16.3488 9.70699C16.5364 9.89453 16.7907 9.99988 17.0559 9.99988C17.3212 9.99988 17.5755 9.89453 17.763 9.70699C17.9506 9.51945 18.0559 9.2651 18.0559 8.99988V7.99988C18.0551 7.20448 17.7388 6.44188 17.1764 5.87944C16.6139 5.317 15.8513 5.00068 15.0559 4.99988H14.0559C13.7907 4.99988 13.5364 5.10524 13.3488 5.29278C13.1613 5.48031 13.0559 5.73467 13.0559 5.99988C13.0559 6.2651 13.1613 6.51945 13.3488 6.70699C13.5364 6.89453 13.7907 6.99988 14.0559 6.99988ZM10.0559 15.9999H9.05593C8.7908 15.9996 8.5366 15.8942 8.34912 15.7067C8.16164 15.5192 8.0562 15.265 8.05593 14.9999V13.9999C8.05593 13.7347 7.95058 13.4803 7.76304 13.2928C7.57551 13.1052 7.32115 12.9999 7.05593 12.9999C6.79072 12.9999 6.53636 13.1052 6.34883 13.2928C6.16129 13.4803 6.05593 13.7347 6.05593 13.9999V14.9999C6.05673 15.7953 6.37305 16.5579 6.93549 17.1203C7.49793 17.6828 8.26053 17.9991 9.05593 17.9999H10.0559C10.3212 17.9999 10.5755 17.8945 10.763 17.707C10.9506 17.5195 11.0559 17.2651 11.0559 16.9999C11.0559 16.7347 10.9506 16.4803 10.763 16.2928C10.5755 16.1052 10.3212 15.9999 10.0559 15.9999Z" fill="#C4C4C4"/>
</svg>
