<svg width="19" height="18" viewBox="0 0 19 18" fill="none" xmlns="http://www.w3.org/2000/svg">
<path d="M15.3702 3.75012C14.5752 2.95303 13.5213 2.46653 12.399 2.3785C11.2766 2.29047 10.1598 2.60672 9.25021 3.27012C8.29595 2.56035 7.1082 2.23851 5.92615 2.3694C4.74409 2.5003 3.65554 3.07421 2.87969 3.97556C2.10384 4.87692 1.69832 6.03876 1.74481 7.22713C1.79129 8.4155 2.28632 9.54213 3.13021 10.3801L7.78771 15.0451C8.17772 15.429 8.703 15.6441 9.25021 15.6441C9.79742 15.6441 10.3227 15.429 10.7127 15.0451L15.3702 10.3801C16.2459 9.49907 16.7374 8.30733 16.7374 7.06512C16.7374 5.82292 16.2459 4.63117 15.3702 3.75012ZM14.3127 9.34512L9.65521 14.0026C9.60221 14.0561 9.53913 14.0986 9.46961 14.1276C9.4001 14.1566 9.32552 14.1715 9.25021 14.1715C9.17489 14.1715 9.10032 14.1566 9.0308 14.1276C8.96129 14.0986 8.89821 14.0561 8.84521 14.0026L4.18771 9.32262C3.59953 8.72138 3.27016 7.91372 3.27016 7.07262C3.27016 6.23152 3.59953 5.42387 4.18771 4.82262C4.78707 4.23087 5.59544 3.89905 6.43771 3.89905C7.27998 3.89905 8.08834 4.23087 8.68771 4.82262C8.75743 4.89292 8.84038 4.94872 8.93177 4.98679C9.02317 5.02487 9.1212 5.04447 9.22021 5.04447C9.31922 5.04447 9.41724 5.02487 9.50864 4.98679C9.60003 4.94872 9.68298 4.89292 9.75271 4.82262C10.3521 4.23087 11.1604 3.89905 12.0027 3.89905C12.845 3.89905 13.6533 4.23087 14.2527 4.82262C14.849 5.41599 15.1891 6.21927 15.2004 7.06039C15.2116 7.90151 14.8929 8.71357 14.3127 9.32262V9.34512Z" fill="#F2513A"/>
<path d="M14.3127 9.34512L9.65521 14.0026C9.60221 14.0561 9.53913 14.0986 9.46961 14.1276C9.4001 14.1566 9.32552 14.1715 9.25021 14.1715C9.17489 14.1715 9.10032 14.1566 9.0308 14.1276C8.96129 14.0986 8.89821 14.0561 8.84521 14.0026L4.18771 9.32262C3.59953 8.72138 3.27016 7.91372 3.27016 7.07262C3.27016 6.23152 3.59953 5.42387 4.18771 4.82262C4.78707 4.23087 5.59544 3.89905 6.43771 3.89905C7.27998 3.89905 8.08834 4.23087 8.68771 4.82262C8.75743 4.89292 8.84038 4.94872 8.93177 4.98679C9.02317 5.02487 9.1212 5.04447 9.22021 5.04447C9.31922 5.04447 9.41724 5.02487 9.50864 4.98679C9.60003 4.94872 9.68298 4.89292 9.75271 4.82262C10.3521 4.23087 11.1604 3.89905 12.0027 3.89905C12.845 3.89905 13.6533 4.23087 14.2527 4.82262C14.849 5.41599 15.1891 6.21927 15.2004 7.06039C15.2116 7.90151 14.8929 8.71357 14.3127 9.32262V9.34512Z" fill="#F2513A"/>
</svg>
