<svg width="16" height="14" viewBox="0 0 16 14" fill="none" xmlns="http://www.w3.org/2000/svg">
<path d="M14.3702 1.75012C13.5752 0.95303 12.5213 0.466529 11.399 0.378502C10.2766 0.290474 9.15978 0.606724 8.25021 1.27012C7.29595 0.560352 6.1082 0.238508 4.92615 0.369402C3.74409 0.500297 2.65554 1.07421 1.87969 1.97556C1.10384 2.87692 0.698323 4.03876 0.744807 5.22713C0.791292 6.4155 1.28632 7.54213 2.13021 8.38012L6.78771 13.0451C7.17772 13.429 7.703 13.6441 8.25021 13.6441C8.79742 13.6441 9.32269 13.429 9.71271 13.0451L14.3702 8.38012C15.2459 7.49907 15.7374 6.30733 15.7374 5.06512C15.7374 3.82292 15.2459 2.63117 14.3702 1.75012ZM13.3127 7.34512L8.65521 12.0026C8.60221 12.0561 8.53913 12.0986 8.46961 12.1276C8.4001 12.1566 8.32553 12.1715 8.25021 12.1715C8.17489 12.1715 8.10032 12.1566 8.0308 12.1276C7.96129 12.0986 7.89821 12.0561 7.84521 12.0026L3.18771 7.32262C2.59953 6.72138 2.27016 5.91372 2.27016 5.07262C2.27016 4.23152 2.59953 3.42387 3.18771 2.82262C3.78707 2.23087 4.59544 1.89905 5.43771 1.89905C6.27998 1.89905 7.08834 2.23087 7.68771 2.82262C7.75743 2.89292 7.84038 2.94872 7.93177 2.98679C8.02317 3.02487 8.1212 3.04447 8.22021 3.04447C8.31922 3.04447 8.41724 3.02487 8.50864 2.98679C8.60003 2.94872 8.68298 2.89292 8.75271 2.82262C9.35207 2.23087 10.1604 1.89905 11.0027 1.89905C11.845 1.89905 12.6533 2.23087 13.2527 2.82262C13.849 3.41599 14.1891 4.21927 14.2004 5.06039C14.2116 5.90151 13.8929 6.71357 13.3127 7.32262V7.34512Z" fill="#7B7B7B"/>
</svg>
