<?xml version="1.0" encoding="utf-8"?>
<!-- Generator: Adobe Illustrator 27.5.0, SVG Export Plug-In . SVG Version: 6.00 Build 0)  -->
<svg version="1.1" xmlns="http://www.w3.org/2000/svg" xmlns:xlink="http://www.w3.org/1999/xlink" x="0px" y="0px"
	 viewBox="0 0 500 500" style="enable-background:new 0 0 500 500;" xml:space="preserve">
<g id="Background_complete">
	<g>
		
			<rect x="87.225" y="152.153" transform="matrix(0.7071 0.7071 -0.7071 0.7071 196.5301 -125.9952)" style="fill:#E0E0E0;" width="326.26" height="44.164"/>
		
			<rect x="87.225" y="152.153" transform="matrix(-0.7453 0.6668 -0.6668 -0.7453 553.1102 137.1613)" style="fill:#E0E0E0;" width="326.26" height="44.164"/>
	</g>
	<g>
		
			<rect x="36.025" y="229.757" transform="matrix(0.7299 0.6836 -0.6836 0.7299 176.9306 19.3373)" style="fill:#E0E0E0;" width="55.944" height="7.573"/>
		
			<rect x="36.025" y="229.757" transform="matrix(-0.723 0.6908 -0.6908 -0.723 271.6034 358.1945)" style="fill:#E0E0E0;" width="55.944" height="7.573"/>
	</g>
	<g>
		
			<rect x="378.891" y="337.24" transform="matrix(0.7071 0.7071 -0.7071 0.7071 360.9998 -188.9972)" style="fill:#E6E6E6;" width="59.497" height="8.054"/>
		
			<rect x="378.891" y="337.24" transform="matrix(-0.7453 0.6668 -0.6668 -0.7453 940.7306 323.1382)" style="fill:#E6E6E6;" width="59.497" height="8.054"/>
	</g>
	<g>
		
			<rect x="389.971" y="233.087" transform="matrix(0.7071 0.7071 -0.7071 0.7071 284.8174 -217.4097)" style="fill:#F0F0F0;" width="29.749" height="4.027"/>
		
			<rect x="389.971" y="233.087" transform="matrix(-0.7453 0.6668 -0.6668 -0.7453 863.321 140.3796)" style="fill:#F0F0F0;" width="29.749" height="4.027"/>
	</g>
	<g>
		
			<rect x="70.722" y="101.953" transform="matrix(0.8479 0.5302 -0.5302 0.8479 68.1446 -29.5672)" style="fill:#E6E6E6;" width="29.749" height="4.027"/>
		
			<rect x="70.722" y="101.953" transform="matrix(-0.5765 0.8171 -0.8171 -0.5765 219.8938 93.9554)" style="fill:#E6E6E6;" width="29.749" height="4.027"/>
	</g>
	<g>
		
			<rect x="411.555" y="125.456" transform="matrix(0.6823 0.731 -0.731 0.6823 231.6429 -276.1908)" style="fill:#E6E6E6;" width="44.124" height="5.973"/>
		
			<rect x="411.555" y="125.456" transform="matrix(-0.7678 0.6407 -0.6407 -0.7678 848.8391 -50.7572)" style="fill:#E6E6E6;" width="44.124" height="5.973"/>
	</g>
	<g>
		
			<rect x="253.851" y="58.948" transform="matrix(0.7071 0.7071 -0.7071 0.7071 123.6261 -175.2746)" style="fill:#F0F0F0;" width="39.074" height="5.289"/>
		
			<rect x="253.851" y="58.948" transform="matrix(-0.7453 0.6668 -0.6668 -0.7453 518.2042 -74.7889)" style="fill:#F0F0F0;" width="39.074" height="5.289"/>
	</g>
	<g>
		
			<rect x="64.395" y="331.259" transform="matrix(0.7071 0.7071 -0.7071 0.7071 261.3353 37.338)" style="fill:#F0F0F0;" width="42.404" height="5.74"/>
		
			<rect x="64.395" y="331.259" transform="matrix(-0.7453 0.6668 -0.6668 -0.7453 372.1734 526.0729)" style="fill:#F0F0F0;" width="42.404" height="5.74"/>
	</g>
	<g>
		<g>
			<g>
				<g>
					<g>
						<path style="fill:#E0E0E0;" d="M443.92,319.446H263.174c-3.232,0-5.862-2.63-5.862-5.862V50.31
							c0-3.232,2.63-5.862,5.862-5.862H443.92c3.232,0,5.862,2.629,5.862,5.862v263.273
							C449.783,316.816,447.153,319.446,443.92,319.446z M263.174,44.698c-3.095,0-5.612,2.518-5.612,5.612v263.273
							c0,3.095,2.518,5.612,5.612,5.612H443.92c3.095,0,5.612-2.518,5.612-5.612V50.31c0-3.094-2.518-5.612-5.612-5.612H263.174z"/>
					</g>
				</g>
				<g>
					<g>
						<path style="fill:#E0E0E0;" d="M235.493,319.446H54.746c-3.232,0-5.862-2.63-5.862-5.862V50.31
							c0-3.232,2.629-5.862,5.862-5.862h180.747c3.232,0,5.862,2.629,5.862,5.862v263.273
							C241.355,316.816,238.725,319.446,235.493,319.446z M54.746,44.698c-3.094,0-5.612,2.518-5.612,5.612v263.273
							c0,3.095,2.518,5.612,5.612,5.612h180.747c3.095,0,5.612-2.518,5.612-5.612V50.31c0-3.094-2.518-5.612-5.612-5.612H54.746z"/>
					</g>
				</g>
			</g>
			<g>
				<g>
					<rect x="0" y="380.515" style="fill:#E0E0E0;" width="500" height="0.25"/>
				</g>
			</g>
		</g>
		<rect x="51.672" y="394.78" style="fill:#E0E0E0;" width="16.06" height="0.25"/>
		<rect x="170.352" y="392.07" style="fill:#E0E0E0;" width="53.53" height="0.25"/>
		<rect x="68.732" y="404.07" style="fill:#E0E0E0;" width="36.25" height="0.25"/>
		<rect x="378.352" y="391.94" style="fill:#E0E0E0;" width="43.19" height="0.25"/>
		<rect x="430.452" y="391.94" style="fill:#E0E0E0;" width="6.33" height="0.25"/>
		<rect x="316.212" y="398.17" style="fill:#E0E0E0;" width="53.89" height="0.25"/>
	</g>
</g>
<g id="Background_simple" style="display:none;">
	<g style="display:inline;">
		<path style="fill:#407BFF;" d="M173.548,64.013c-21.564,4.147-42.358,12.978-60.801,26.828
			c-21.737,16.324-43.946,41.756-37.386,75.02c12.11,61.411,70.206,62.53,58.607,103.821
			c-13.139,46.772-4.328,101.635,54.63,116.892c111.982,28.978,247.351-140.577,209.331-233.746
			C374.259,94.825,288.049,41.991,173.548,64.013z"/>
		<path style="opacity:0.9;fill:#FFFFFF;" d="M173.548,64.013c-21.564,4.147-42.358,12.978-60.801,26.828
			c-21.737,16.324-43.946,41.756-37.386,75.02c12.11,61.411,70.206,62.53,58.607,103.821
			c-13.139,46.772-4.328,101.635,54.63,116.892c111.982,28.978,247.351-140.577,209.331-233.746
			C374.259,94.825,288.049,41.991,173.548,64.013z"/>
	</g>
</g>
<g id="Shadow">
	<g>
		<g>
			<path style="fill:#F5F5F5;" d="M431.774,452.203c0,3.387-81.383,6.132-181.774,6.132s-181.775-2.746-181.775-6.132
				c0-3.387,81.383-6.132,181.775-6.132S431.774,448.817,431.774,452.203z"/>
		</g>
	</g>
</g>
<g id="Speech_Bubbles">
	<g>
		<g>
			<polygon style="fill:#407BFF;" points="169.088,178.89 179.494,174.21 188.098,185.75 174.415,189.395 			"/>
			<polygon style="opacity:0.7;fill:#FFFFFF;" points="169.078,178.973 179.458,174.235 188.125,185.727 174.464,189.448 			"/>
			<path style="fill:#407BFF;" d="M96.974,147.577c-11.508,21.604-3.325,48.447,18.278,59.955
				c21.604,11.509,48.447,3.325,59.955-18.278c11.509-21.604,3.325-48.447-18.279-59.956
				C135.326,117.79,108.483,125.974,96.974,147.577z"/>
			<g>
				<g>
					<path style="fill:#407BFF;" d="M100.483,131.956c-11.194,9.464-17.114,24.585-15.299,39.132c0.118,0.945,1.619,0.957,1.5,0
						c-1.772-14.204,3.927-28.829,14.86-38.072C102.282,132.393,101.216,131.336,100.483,131.956L100.483,131.956z"/>
				</g>
			</g>
			<g>
				<g>
					<path style="fill:#407BFF;" d="M86.265,177.613c0.137,2.34,0.743,4.608,1.792,6.704c0.181,0.362,0.693,0.464,1.026,0.269
						c0.369-0.216,0.451-0.663,0.269-1.026c-0.925-1.849-1.466-3.883-1.587-5.947c-0.024-0.404-0.328-0.75-0.75-0.75
						C86.627,176.863,86.241,177.206,86.265,177.613L86.265,177.613z"/>
				</g>
			</g>
			<path style="opacity:0.7;fill:#FFFFFF;" d="M96.859,147.797c-11.388,21.667-3.056,48.465,18.611,59.853
				c21.667,11.389,48.465,3.056,59.853-18.611c11.389-21.668,3.056-48.465-18.612-59.853
				C135.045,117.797,108.248,126.13,96.859,147.797z"/>
		</g>
		
			<text transform="matrix(1 0 0 1 112.9145 179.5035)" style="fill:#407BFF; font-family:'Montserrat-ExtraBold'; font-size:29.9577px;">no</text>
	</g>
	<g>
		<g>
			<path style="fill:#407BFF;" d="M377.187,145.98c18.51,9.338,25.944,31.913,16.606,50.423
				c-9.339,18.51-31.914,25.945-50.424,16.606c-14.289-7.209-21.937-22.307-20.404-37.334l-7.604-8.324l11.15-4.196
				c0.091-0.188,0.158-0.382,0.252-0.569C336.102,144.076,358.678,136.642,377.187,145.98z"/>
		</g>
		<g>
			<path style="fill:#FFFFFF;" d="M360.715,198.687c-1.41,0-2.589-0.456-3.536-1.368c-0.946-0.912-1.419-2.022-1.419-3.331
				c0-1.307,0.465-2.4,1.394-3.278c0.93-0.877,2.117-1.316,3.562-1.316c1.446,0,2.633,0.439,3.562,1.316
				c0.93,0.878,1.394,1.971,1.394,3.278c0,1.309-0.473,2.419-1.42,3.33C363.306,198.232,362.127,198.687,360.715,198.687z
				 M363.917,185.73l-6.402,0l-1.599-23.592l9.602,0L363.917,185.73z"/>
		</g>
	</g>
</g>
<g id="Character">
	<g>
		<g>
			<path style="fill:#407BFF;" d="M323.327,243.598c0,0,14.244,1.718,21.804,20.618c7.56,18.9,11.34,48.108,11.34,48.108h-45.016
				l-3.436-34.363L323.327,243.598z"/>
			<g>
				<path style="fill:#B97964;" d="M172.232,389.742c-7.974-6.954-13.322-17.974-19.13-27.071c-2.375-3.72-7.229-13.24-7.229-13.24
					c0.072-4.487,3.26-8.174,5.737-11.916c11.62-17.554,27.094-29.574,43.787-42.402l-15.602-31.957
					c-17.991,12.121-46.027,43.987-58.328,61.855c-3.653,5.305-7.141,10.989-8.075,17.362c-1.126,7.681,0.684,15.944,5.054,22.36
					c9.897,14.53,24.131,29.555,37.708,41.903"/>
			</g>
			<path style="opacity:0.3;" d="M140.383,301.019l20.241,24.71c1.714-2.066,3.937-4.376,6.376-6.791l-23.225-21.786
				L140.383,301.019z"/>
			<path style="fill:#407BFF;" d="M241.848,233.356c-1.717,0.481-53.878,14.131-53.878,14.131s5.267,98.837,6.886,113.021
				c1.941,17.014-3.448,52.298-4.736,58.069c-1.288,5.771-10.085,35.817-8.571,39.392l147.234,0.367
				c-2.147-16.352-8.557-83.399-8.987-97.828c-0.429-14.428,6.491-112.059,6.036-115.426c-0.455-3.367-48.558-14.698-48.558-14.698"
				/>
			<path style="opacity:0.3;" d="M272.23,330.693c-0.484,1.232,17.277,23.895,23.94,26.29c6.663,2.395,10.122,0,10.122,0
				l14.029,14.625v-21.533l-13.763-15.177L272.23,330.693z"/>
			<path style="fill:#B97964;" d="M356.187,333.578c-0.965-13.64-1.32-21.253-1.32-21.253h-30.229l2.574,18.76l-19.157-2.611
				l-7.083,14.847c0,0,28.084,26.844,41.116,26.889C356.471,370.258,357.467,351.676,356.187,333.578z"/>
			<path style="fill:#B97964;" d="M153.102,403.735c0.264,0.529,18.781,18.195,26.452,22.295c7.671,4.1,8.406,0.921,8.776-1.3
				c0.254-1.521,2.663-1.962,4.714-2.667c1.394-0.479,2.221-3.625,2.353-5.477c0.132-1.852,3.202-2.194,3.863-3.649
				c0.661-1.455-0.529-4.894,0-6.216c0.529-1.323,1.587-4.1,0.794-6.348c-0.794-2.248-4.564-5.513-6.548-7.629
				c-1.984-2.116-2.555-1.927-5.068-2.059c-2.513-0.132-5.842,2.678-11.133,1.356c-5.29-1.323-7.203-4.077-7.203-4.077
				L153.102,403.735z"/>
			<path style="fill:#407BFF;" d="M187.97,247.487c0,0-46.688,41.988-46.192,46.375c0.497,4.387,30.142,30.92,32.897,29.681
				c2.8-1.26,19.713-16.239,19.713-16.991C194.388,305.798,187.97,247.487,187.97,247.487z"/>
			<g>
				<g>
					<path style="fill:#A24E3F;" d="M322.472,331.34c3.112,1.626,6.532,1.707,9.965,1.572c3.571-0.141,7.255-0.397,10.527,1.313
						c0.855,0.447,1.614-0.847,0.757-1.295c-3.112-1.626-6.532-1.708-9.965-1.572c-3.572,0.141-7.255,0.397-10.527-1.313
						C322.374,329.598,321.615,330.892,322.472,331.34L322.472,331.34z"/>
				</g>
			</g>
			<g>
				<g>
					<path style="fill:#263238;" d="M192.286,320.251c-1.47-13.535-1.653-27.188-2.727-40.755
						c-0.268-3.393-0.586-6.784-1.045-10.157c-0.13-0.952-1.575-0.547-1.447,0.399c1.818,13.357,1.98,26.937,2.874,40.374
						c0.225,3.384,0.477,6.768,0.843,10.14C190.889,321.201,192.39,321.211,192.286,320.251L192.286,320.251z"/>
				</g>
			</g>
			<path style="opacity:0.3;" d="M189.79,294.895c-0.046,0.758-10.592,25.356-10.592,25.356c3.43-2.684,7.105-5.901,10.941-9.462
				L189.79,294.895z"/>
			<polygon style="opacity:0.3;" points="324.638,312.325 325.269,316.922 355.207,318.557 354.867,312.325 			"/>
			<g>
				<g>
					<path style="fill:#263238;" d="M200.84,407.352c7.848-1.582,15.631-3.466,23.333-5.647c0.927-0.263,0.533-1.71-0.399-1.446
						c-7.703,2.181-15.486,4.065-23.334,5.647C199.495,406.096,199.896,407.542,200.84,407.352L200.84,407.352z"/>
				</g>
			</g>
			<g>
				<g>
					<path style="fill:#263238;" d="M203.041,414.266c3.542,0.189,7.085,0.378,10.627,0.567c0.965,0.051,0.962-1.449,0-1.5
						c-3.542-0.189-7.085-0.378-10.627-0.567C202.076,412.714,202.079,414.215,203.041,414.266L203.041,414.266z"/>
				</g>
			</g>
			<g style="opacity:0.3;">
				<path d="M241.203,400.259c-0.356-0.91-1.64-0.875-2.597-0.678c-11.497,2.375-22.993,4.75-34.49,7.126l-2.933,0.642
					c12.86,2.851,26.69,1.111,38.443-4.838C240.527,402.054,241.57,401.2,241.203,400.259z"/>
			</g>
		</g>
		<g>
			<path style="fill:#B97964;" d="M321.749,281.165c0,0,3.803,1.219,2.732,6.588c-1.071,5.369-1.875,21.081-1.263,23.832
				c0.612,2.751,4.09,20.929,0.203,26.214c-3.888,5.285-8.268,10.212-17.06,11.924s-17.623-3.26-20.862-5.937
				c-3.239-2.677-19.129-14.871-19.022-19.545c0.122-5.323,4.911-3.51,7.203-1.808c2.178,1.617,6.903,3.943,10.255,4.077
				c1.64,0.066,2.889-1.463,2.549-3.069c-0.823-3.894-2.569-12.273-3.512-17.696c-1.189-6.834-6.514-23.561-2.21-24.779
				c3.512-0.994,5.228,1.517,6.32,3.634c0.802,1.553,6.114,21.746,6.114,21.746s-5.35-32.828-2.176-34.534
				c3.174-1.706,6.355,0.17,6.504,1.736c0.149,1.566,5.292,28.192,5.292,28.192s-0.575-28.589,2.649-29.772
				c3.224-1.184,5.526,0.88,5.758,3.316s0.879,22.681,1.418,25.944c0.423,2.564,1.432,4.651,1.896,2.149
				c0.465-2.502,3.539-18.353,4.277-19.828C319.553,282.076,320.753,280.614,321.749,281.165z"/>
			<g>
				<g>
					<path style="fill:#A24E3F;" d="M317.491,344.559c5.084-1.634,7.813-6.706,8.273-11.771c0.61-6.725-1.429-13.267-1.99-19.9
						c-0.081-0.955-1.582-0.963-1.5,0c0.24,2.839,0.855,5.622,1.287,8.434c0.461,3.001,0.766,6.114,0.789,9.152
						c0.038,5.105-1.921,10.923-7.257,12.638C316.177,343.407,316.568,344.856,317.491,344.559L317.491,344.559z"/>
				</g>
			</g>
			<g>
				<g>
					<path style="fill:#A24E3F;" d="M287.416,330.189c5.927-1.943,12.685-0.421,17.177,3.919c0.694,0.671,1.757-0.388,1.061-1.061
						c-4.859-4.695-12.208-6.413-18.636-4.305C286.104,329.042,286.495,330.491,287.416,330.189L287.416,330.189z"/>
				</g>
			</g>
			<g>
				<g>
					<path style="fill:#A24E3F;" d="M289.512,311.865c8.207-2.828,16.91-3.773,25.534-2.785c0.957,0.11,0.949-1.391,0-1.5
						c-8.741-1.002-17.615-0.027-25.933,2.839C288.206,310.731,288.595,312.181,289.512,311.865L289.512,311.865z"/>
				</g>
			</g>
		</g>
		<g>
			<g>
				<path style="fill:#B97964;" d="M234.963,235.162c9.225-2.12,9.343-11.428,8.074-21.212c-0.512-3.492-1.31-6.95-2.383-10.341
					l18.132-15.137l16.409-13.889c-1.019,6.104-1.714,12.263-2.082,18.454c-0.91,10.698,0.292,19.243,1.693,29.533
					c1.285,4.584,3.229,5.639,5.473,8.533c0,0-17.791,16.589-30.584,16.237C236.901,246.987,234.963,235.162,234.963,235.162z"/>
				<path style="opacity:0.2;enable-background:new    ;" d="M273.388,201.208c0,0-10.772,25.855-30.049,15.768l-0.285-4.508
					L273.388,201.208z"/>
				<path style="fill:#B97964;" d="M283.062,142.92c-6.126-17.886-26.168-28.1-44.762-22.814
					c-25.637,7.328-31.329,43.134-27.143,65.477c4.663,24.875,35.602,38.962,56.169,22.007
					c13.711-11.278,14.183-25.624,17.234-49.801C285.226,152.822,284.715,147.742,283.062,142.92z"/>
				<path style="fill:#263238;" d="M203.783,135.463c0,0,2.366,2.762,4.584,1.955c-2.222-3.593-1.941-8.05,0.706-11.223
					c0,0,1.603,3.818,3.493,3.897c1.135-9.025,5.155-17.417,11.521-24.048c11.045-12.29,47.241,3.554,47.241,3.554
					s8.656-7.356,22.431,5.103c11.043,9.989,12.335,30.385,11.313,39.172c-4.023,8.465-13.498,16.658-26.34,20.811
					c-6.312-7.179-6.757-18.011-6.121-25.506c-1.906-0.529-3.685-1.511-5.136-2.909c-5.641-5.412-1.441-24.253-23.942-21.444
					c-3.976-2.429-9.006-2.448-12.846-0.051c-6.912,4.024-10.643,26.035-20.209,19.595
					C200.911,137.931,203.783,135.463,203.783,135.463z"/>
				<g>
					<path style="fill:#263238;" d="M250.035,161.95c-0.278,2.761-2.387,4.679-4.313,4.313c-1.926-0.366-3.026-2.893-2.562-5.632
						c0.463-2.739,2.434-4.675,4.314-4.314C249.352,156.678,250.503,159.167,250.035,161.95z"/>
					<path style="fill:#263238;" d="M224.582,160.56c-0.278,2.761-2.434,4.674-4.313,4.315c-1.88-0.36-3.026-2.894-2.562-5.632
						c0.463-2.738,2.434-4.674,4.314-4.314C223.899,155.288,225.032,157.953,224.582,160.56z"/>
					<path style="fill:#263238;" d="M214.643,144.259c0.082,0.491,0.41,0.914,0.863,1.109c3.123,1.198,5.586,3.812,6.646,7.051
						c0.167,0.714,0.861,1.183,1.55,1.047c0.688-0.136,1.11-0.825,0.941-1.54c0-0.003-0.001-0.004-0.001-0.006
						c-1.24-4.125-4.323-7.479-8.271-8.996c-0.662-0.293-1.403,0.006-1.657,0.671c-0.004,0.009-0.007,0.019-0.01,0.029
						C214.651,143.831,214.631,144.044,214.643,144.259z"/>
					<path style="fill:#263238;" d="M249.868,150.033c0.22-0.159,0.384-0.379,0.473-0.628c0.102-0.704-0.401-1.327-1.123-1.391
						c-0.01-0.001-0.019-0.002-0.029-0.002c-4.237-0.411-8.515,1.217-11.468,4.361c-0.471,0.561-0.401,1.365,0.156,1.794
						l0.002,0.002c0.565,0.412,1.383,0.306,1.863-0.241l0,0c2.401-2.42,5.788-3.651,9.132-3.319
						C249.27,150.564,249.634,150.354,249.868,150.033z"/>
				</g>
				<g>
					<path style="fill:#B97964;" d="M296.796,177.449c-2.536,5.611-7.337,9.966-13.35,12.108
						c-7.984,2.783-12.877-3.962-11.435-11.553c1.35-6.732,7.076-16.515,15.477-15.951
						C295.889,162.618,299.818,170.521,296.796,177.449z"/>
					<g style="opacity:0.1;">
						<g>
							<path d="M278.025,180.997c0.357-2.983,1.743-5.811,3.803-7.986c1.747-1.845,5.315-4.724,7.925-2.908
								c0.794,0.553,1.545-0.747,0.757-1.295c-3.129-2.177-7.244,0.628-9.473,2.865c-2.509,2.517-4.091,5.801-4.512,9.324
								C276.411,181.954,277.912,181.946,278.025,180.997L278.025,180.997z"/>
						</g>
					</g>
				</g>
				<path style="fill:#A24E3F;" d="M229.76,158.33c-3.826,6.012-8.523,11.467-13.958,16.207c2.755,2.708,6.589,4.152,10.474,3.948
					L229.76,158.33z"/>
			</g>
			<g>
				<g>
					<path style="fill:#263238;" d="M231.236,186.282c3.612-4.237,11.118-4.79,16.297-1.712c1.196,0.711,2.249,2.513,2.281,3.904
						c0.023,1.001-0.602,1.945-1.45,2.477c-0.848,0.532-1.885,0.694-2.885,0.645c-1.921-0.095-4.062-0.865-5.623,0.258
						c-0.607,0.437-1.007,1.098-1.532,1.631c-1.815,1.843-5.167,1.742-6.957-0.125C229.577,191.493,229.56,188.252,231.236,186.282z
						"/>
				</g>
				<path style="fill:#F54948;" d="M249.646,187.561c0.087,0.312,0.161,0.624,0.168,0.913c0.023,1.001-0.602,1.945-1.45,2.477
					c-0.848,0.532-1.885,0.694-2.885,0.645c-1.921-0.095-4.062-0.865-5.623,0.258c-0.607,0.437-1.007,1.098-1.532,1.631
					c-0.716,0.727-1.673,1.14-2.677,1.273c-0.147-0.025-0.989-3.393,2.147-6.044C240.92,186.073,249.48,187.532,249.646,187.561z"/>
				<path style="fill:#FFFFFF;" d="M247.369,184.491c-1.154,0.014-8.723,0.153-11.406,1.415c-2.664,1.253-4.396,0.466-4.671,0.324
					C234.885,182.088,242.219,181.53,247.369,184.491z"/>
			</g>
			<g style="opacity:0.1;">
				<g>
					<path d="M244.404,123.665c-1.142-3.123-2.569-5.703-4.965-8.062c-2.23-2.195-5.203-3.799-8.353-4.08
						c-3.62-0.323-7.195,1.339-9.69,3.894c-2.573,2.635-4.111,6.085-5.152,9.571c-0.277,0.927,1.17,1.323,1.446,0.399
						c1.399-4.685,3.937-9.68,8.726-11.632c3.725-1.519,7.724-0.573,10.843,1.911c2.817,2.244,4.485,5.08,5.699,8.398
						C243.287,124.963,244.737,124.574,244.404,123.665L244.404,123.665z"/>
				</g>
			</g>
			<g style="opacity:0.1;">
				<g>
					<path d="M249.564,121.027c-0.83-8.196-6.762-15.434-14.675-17.784c-0.927-0.275-1.324,1.172-0.399,1.446
						c7.227,2.146,12.813,8.821,13.574,16.337C248.16,121.978,249.661,121.988,249.564,121.027L249.564,121.027z"/>
				</g>
			</g>
			<g style="opacity:0.3;">
				<path style="fill:#A24E3F;" d="M228.672,133.037c1.375-1.712,3.628-2.411,5.755-2.955c4.032-1.031,8.158-0.811,12.319-0.733
					c6.928,0.129,12.698,6.266,13.482,12.82c-3.801,1.747-8.206,1.162-12.365,0.715c-4.16-0.447-8.7-0.629-12.156,1.728
					c-1.462,0.997-3.082,2.492-4.725,1.833c-1.061-0.425-1.583-1.595-2.003-2.657c-0.692-1.752-1.391-3.529-1.603-5.401
					C227.165,136.516,227.493,134.506,228.672,133.037z"/>
			</g>
		</g>
	</g>
</g>
</svg>
