<svg width="24" height="24" viewBox="0 0 24 24" fill="none" xmlns="http://www.w3.org/2000/svg">
<path d="M18.0002 14.0001C17.4093 14.004 16.8267 14.1388 16.2942 14.3947C15.7616 14.6506 15.2924 15.0213 14.9202 15.4801L9.82015 13.1301C10.0599 12.3959 10.0599 11.6044 9.82015 10.8701L14.9202 8.52011C15.5218 9.24608 16.3605 9.73619 17.2883 9.90395C18.2161 10.0717 19.1734 9.90634 19.9911 9.43702C20.8088 8.96769 21.4345 8.22459 21.7577 7.33886C22.0809 6.45312 22.0808 5.4817 21.7575 4.59602C21.4341 3.71035 20.8083 2.96736 19.9905 2.49818C19.1726 2.02901 18.2154 1.86381 17.2876 2.03174C16.3598 2.19967 15.5212 2.68993 14.9197 3.41601C14.3182 4.14208 13.9925 5.05729 14.0002 6.00011C14.0032 6.23835 14.0266 6.47588 14.0702 6.71011L8.79015 9.14011C8.22723 8.58969 7.5144 8.21763 6.74096 8.07054C5.96752 7.92345 5.16787 8.00788 4.4422 8.31325C3.71653 8.61861 3.09711 9.13133 2.66155 9.78718C2.22599 10.443 1.99365 11.2128 1.99365 12.0001C1.99365 12.7874 2.22599 13.5572 2.66155 14.2131C3.09711 14.8689 3.71653 15.3816 4.4422 15.687C5.16787 15.9923 5.96752 16.0768 6.74096 15.9297C7.5144 15.7826 8.22723 15.4105 8.79015 14.8601L14.0702 17.2901C14.0266 17.5243 14.0032 17.7619 14.0002 18.0001C14.0002 18.7912 14.2347 19.5646 14.6743 20.2224C15.1138 20.8802 15.7385 21.3929 16.4694 21.6956C17.2003 21.9984 18.0046 22.0776 18.7805 21.9233C19.5564 21.7689 20.2692 21.388 20.8286 20.8285C21.388 20.2691 21.769 19.5564 21.9233 18.7805C22.0776 18.0046 21.9984 17.2003 21.6957 16.4694C21.3929 15.7385 20.8802 15.1138 20.2224 14.6742C19.5646 14.2347 18.7913 14.0001 18.0002 14.0001ZM18.0002 4.00011C18.3957 4.00011 18.7824 4.11741 19.1113 4.33718C19.4402 4.55694 19.6965 4.8693 19.8479 5.23475C19.9993 5.6002 20.0389 6.00233 19.9617 6.3903C19.8846 6.77826 19.6941 7.13462 19.4144 7.41433C19.1347 7.69403 18.7783 7.88451 18.3903 7.96169C18.0024 8.03886 17.6002 7.99925 17.2348 7.84787C16.8693 7.6965 16.557 7.44015 16.3372 7.11125C16.1174 6.78236 16.0002 6.39568 16.0002 6.00011C16.0002 5.46968 16.2109 4.96097 16.5859 4.5859C16.961 4.21083 17.4697 4.00011 18.0002 4.00011ZM6.00015 14.0001C5.60459 14.0001 5.21791 13.8828 4.88901 13.6631C4.56011 13.4433 4.30377 13.1309 4.15239 12.7655C4.00102 12.4 3.96141 11.9979 4.03858 11.6099C4.11575 11.222 4.30623 10.8656 4.58594 10.5859C4.86564 10.3062 5.22201 10.1157 5.60997 10.0385C5.99793 9.96137 6.40006 10.001 6.76552 10.1524C7.13097 10.3037 7.44333 10.5601 7.66309 10.889C7.88285 11.2179 8.00015 11.6046 8.00015 12.0001C8.00015 12.5305 7.78944 13.0393 7.41436 13.4143C7.03929 13.7894 6.53058 14.0001 6.00015 14.0001ZM18.0002 20.0001C17.6046 20.0001 17.2179 19.8828 16.889 19.6631C16.5601 19.4433 16.3038 19.1309 16.1524 18.7655C16.001 18.4 15.9614 17.9979 16.0386 17.6099C16.1158 17.222 16.3062 16.8656 16.5859 16.5859C16.8656 16.3062 17.222 16.1157 17.61 16.0385C17.9979 15.9614 18.4001 16.001 18.7655 16.1524C19.131 16.3037 19.4433 16.5601 19.6631 16.889C19.8829 17.2179 20.0002 17.6046 20.0002 18.0001C20.0002 18.5305 19.7894 19.0393 19.4144 19.4143C19.0393 19.7894 18.5306 20.0001 18.0002 20.0001Z" fill="#141414"/>
</svg>
