<svg width="16" height="14" viewBox="0 0 16 14" fill="none" xmlns="http://www.w3.org/2000/svg">
<path d="M15.5303 6.46959L9.53025 0.46959C9.42536 0.364733 9.29174 0.293328 9.14627 0.264403C9.00081 0.235477 8.85003 0.250329 8.71301 0.307082C8.57598 0.363834 8.45886 0.459939 8.37645 0.583246C8.29404 0.706554 8.25003 0.851527 8.25 0.99984V3.65859C6.20122 3.84818 4.29692 4.79549 2.90977 6.31511C1.52262 7.83474 0.752454 9.81731 0.75 11.8748V12.9998C0.750118 13.1555 0.798682 13.3073 0.888956 13.4342C0.979229 13.561 1.10674 13.6566 1.25379 13.7077C1.40085 13.7588 1.56017 13.7629 1.70965 13.7194C1.85913 13.6759 1.99136 13.5869 2.088 13.4648C2.82277 12.5911 3.72432 11.8725 4.73996 11.3511C5.7556 10.8297 6.86497 10.5159 8.00325 10.4281C8.04075 10.4236 8.1345 10.4161 8.25 10.4086V12.9998C8.25003 13.1482 8.29404 13.2931 8.37645 13.4164C8.45886 13.5397 8.57598 13.6358 8.71301 13.6926C8.85003 13.7494 9.00081 13.7642 9.14627 13.7353C9.29174 13.7064 9.42536 13.6349 9.53025 13.5301L15.5303 7.53009C15.6709 7.38944 15.7498 7.19871 15.7498 6.99984C15.7498 6.80097 15.6709 6.61024 15.5303 6.46959ZM9.75 11.1893V9.62484C9.75 9.42593 9.67098 9.23516 9.53033 9.09451C9.38968 8.95386 9.19891 8.87484 9 8.87484C8.80875 8.87484 8.028 8.91234 7.8285 8.93859C5.80715 9.12484 3.88306 9.8928 2.289 11.1496C2.46993 9.49542 3.25465 7.9661 4.49292 6.85446C5.73118 5.74282 7.33596 5.12698 9 5.12484C9.19891 5.12484 9.38968 5.04582 9.53033 4.90517C9.67098 4.76452 9.75 4.57375 9.75 4.37484V2.81034L13.9395 6.99984L9.75 11.1893Z" fill="#7B7B7B"/>
</svg>
