<svg width="18" height="17" viewBox="0 0 18 17" fill="none" xmlns="http://www.w3.org/2000/svg">
<path d="M14.8332 6.83317C14.6122 6.83317 14.4002 6.92097 14.2439 7.07725C14.0876 7.23353 13.9998 7.44549 13.9998 7.6665V10.4832L12.7665 9.24984C12.331 8.81779 11.7424 8.57536 11.129 8.57536C10.5156 8.57536 9.92698 8.81779 9.4915 9.24984L8.90817 9.8415L6.8415 7.7665C6.40602 7.33446 5.81744 7.09202 5.204 7.09202C4.59057 7.09202 4.00198 7.33446 3.5665 7.7665L2.33317 9.00817V4.33317C2.33317 4.11216 2.42097 3.9002 2.57725 3.74392C2.73353 3.58763 2.94549 3.49984 3.1665 3.49984H9.83317C10.0542 3.49984 10.2661 3.41204 10.4224 3.25576C10.5787 3.09948 10.6665 2.88752 10.6665 2.6665C10.6665 2.44549 10.5787 2.23353 10.4224 2.07725C10.2661 1.92097 10.0542 1.83317 9.83317 1.83317H3.1665C2.50346 1.83317 1.86758 2.09656 1.39874 2.5654C0.929896 3.03424 0.666504 3.67013 0.666504 4.33317V14.5165C0.6687 15.1302 0.913482 15.7182 1.34747 16.1522C1.78145 16.5862 2.36943 16.831 2.98317 16.8332H13.3498C13.5757 16.8314 13.8001 16.7977 14.0165 16.7332C14.4977 16.5982 14.9213 16.3091 15.2224 15.9102C15.5235 15.5113 15.6853 15.0246 15.6832 14.5248V7.6665C15.6832 7.55565 15.6611 7.44591 15.6182 7.3437C15.5753 7.2415 15.5124 7.14888 15.4332 7.07128C15.3541 6.99367 15.2602 6.93264 15.1572 6.89176C15.0542 6.85087 14.944 6.83095 14.8332 6.83317ZM3.1665 15.1665C2.94549 15.1665 2.73353 15.0787 2.57725 14.9224C2.42097 14.7661 2.33317 14.5542 2.33317 14.3332V11.3582L4.7415 8.94984C4.8633 8.82872 5.02808 8.76074 5.19984 8.76074C5.3716 8.76074 5.53638 8.82872 5.65817 8.94984L11.8832 15.1665H3.1665ZM13.9998 14.3332C13.9945 14.4945 13.9424 14.6509 13.8498 14.7832L10.0832 10.9998L10.6748 10.4165C10.7346 10.3555 10.8059 10.3071 10.8846 10.274C10.9633 10.2409 11.0478 10.2239 11.1332 10.2239C11.2185 10.2239 11.303 10.2409 11.3817 10.274C11.4604 10.3071 11.5318 10.3555 11.5915 10.4165L13.9998 12.8415V14.3332ZM16.4998 1.83317H15.6665V0.999837C15.6665 0.778823 15.5787 0.566862 15.4224 0.410582C15.2661 0.254301 15.0542 0.166504 14.8332 0.166504C14.6122 0.166504 14.4002 0.254301 14.2439 0.410582C14.0876 0.566862 13.9998 0.778823 13.9998 0.999837V1.83317H13.1665C12.9455 1.83317 12.7335 1.92097 12.5772 2.07725C12.421 2.23353 12.3332 2.44549 12.3332 2.6665C12.3332 2.88752 12.421 3.09948 12.5772 3.25576C12.7335 3.41204 12.9455 3.49984 13.1665 3.49984H13.9998V4.33317C13.9998 4.55418 14.0876 4.76615 14.2439 4.92243C14.4002 5.07871 14.6122 5.1665 14.8332 5.1665C15.0542 5.1665 15.2661 5.07871 15.4224 4.92243C15.5787 4.76615 15.6665 4.55418 15.6665 4.33317V3.49984H16.4998C16.7208 3.49984 16.9328 3.41204 17.0891 3.25576C17.2454 3.09948 17.3332 2.88752 17.3332 2.6665C17.3332 2.44549 17.2454 2.23353 17.0891 2.07725C16.9328 1.92097 16.7208 1.83317 16.4998 1.83317Z" fill="white"/>
</svg>
